<svg viewBox="0 0 295.29 295.69" xmlns="http://www.w3.org/2000/svg">
  <style>
    path { fill: #fff; }
    @media (prefers-color-scheme: light) {
      path { fill: #111; }
    }
    @media (prefers-color-scheme: dark) {
      path { fill: #fff; }
    }
  </style>
  <path d="m267.55 61.51c-2.01-2.79-4.17-5.58-6.42-8.28-.13-.16-.27-.33-.41-.48-2.74-3.28-5.68-6.5-8.76-9.58s-6.06-5.8-9.22-8.45l-5.31 5.31-84.76 84.76-.02.02-5.28 5.28-72.31-72.3c2.63-2.14 5.35-4.14 8.14-6.01 18.83-12.64 40.97-19.43 64.16-19.43s45.99 6.99 64.99 20l23.29-23.29-.94-.68c-9.7-7.11-20.08-12.94-30.98-17.44-.72-.3-1.45-.6-2.18-.88-1.5-.6-3.03-1.16-4.56-1.7-.07-.03-.15-.05-.23-.08-.49-.17-.98-.34-1.48-.51-14.88-5.04-30.83-7.77-47.42-7.77-45.54-0-86.26 20.58-113.37 52.95l95.02 95.02-5.11 5.11-.08.08-66.92 66.91c-2.14-2.63-4.14-5.35-6.01-8.13-12.64-18.84-19.43-40.98-19.43-64.17s6.99-45.98 20-64.98l-17.92-17.92-5.01-5.01c-18.24 24.58-29.02 55.02-29.02 87.98 0 45.29 20.36 85.81 52.42 112.94l89.84-89.83 1.28-1.28 3.83-3.83 72.08 72.08c-2.64 2.13-5.36 4.13-8.15 5.99-18.78 12.55-40.84 19.28-63.94 19.28s-44.21-6.45-62.72-18.49l-.22.22-22.49 22.5-.44.44c23.69 17.07 52.63 27.31 83.95 27.81.48.01.97.02 1.45.01.32.01.64.01.96.01 31.01-.1 60.66-9.69 85.77-27.74 2.8-2.01 5.58-4.16 8.27-6.41.17-.13.33-.27.49-.41 3.28-2.74 6.5-5.69 9.58-8.77 2.96-2.95 5.8-6.05 8.46-9.21l-5.32-5.32-81.79-81.79-1.49-1.49-1.48-1.48-5.1-5.1 2.04-2.04 70.24-70.24c2.13 2.64 4.13 5.35 5.99 8.15 12.55 18.78 19.28 40.83 19.28 63.93s-6.59 44.69-18.88 63.33l23.6 23.6c.63-.87 1.26-1.75 1.87-2.64v-.63c16.95-24.68 25.91-53.54 25.91-83.66s-9.6-61.02-27.74-86.26z"/>
</svg>
